<svg width="254" height="254" viewBox="0 0 254 254" fill="none" xmlns="http://www.w3.org/2000/svg">
<path d="M126.856 253.307C57.132 253.307 0.406494 196.581 0.406494 126.857C0.406494 57.1321 57.132 0.406616 126.856 0.406616C196.581 0.406616 253.306 57.1321 253.306 126.857C253.306 196.581 196.581 253.307 126.856 253.307ZM126.856 20.0766C67.9786 20.0766 20.0765 67.9787 20.0765 126.857C20.0765 185.735 67.9786 233.637 126.856 233.637C185.734 233.637 233.636 185.735 233.636 126.857C233.636 67.9787 185.734 20.0766 126.856 20.0766Z" fill="#FFFEFE"/>
<path d="M119.115 176.748C116.246 176.748 113.517 175.498 111.649 173.314L62.5666 116.063C59.0316 111.938 59.5093 105.728 63.6315 102.193C67.751 98.6583 73.9639 99.1332 77.4989 103.258L118.882 151.528L176.02 80.6293C179.434 76.3975 185.622 75.7371 189.851 79.1428C194.08 82.5542 194.746 88.7446 191.338 92.9737L126.772 173.084C124.937 175.36 122.186 176.7 119.264 176.748C119.213 176.748 119.163 176.748 119.115 176.748Z" fill="#FFFEFE"/>
</svg>
