<svg width="375" height="375" viewBox="0 0 375 375" fill="none" xmlns="http://www.w3.org/2000/svg">
<path d="M187.2 0C83.975 0 0 83.975 0 187.2C0 290.425 83.975 374.4 187.2 374.4C290.425 374.4 374.4 290.425 374.4 187.2C374.4 83.975 290.425 0 187.2 0ZM187.2 345.6C99.8611 345.6 28.8 274.539 28.8 187.2C28.8 99.8611 99.8611 28.8 187.2 28.8C274.539 28.8 345.6 99.8611 345.6 187.2C345.6 274.539 274.539 345.6 187.2 345.6Z" fill="white"/>
<path d="M269.454 105.086C263.826 99.4588 254.714 99.4588 249.092 105.086L187.27 166.908L125.454 105.086C119.826 99.4588 110.714 99.4588 105.092 105.086C99.4704 110.714 99.4646 119.826 105.092 125.448L166.908 187.27L105.086 249.086C99.4588 254.714 99.4588 263.826 105.086 269.448C107.903 272.265 111.584 273.67 115.27 273.67C118.956 273.67 122.637 272.265 125.454 269.454L187.27 207.632L249.086 269.448C251.903 272.265 255.584 273.67 259.27 273.67C262.956 273.67 266.637 272.265 269.454 269.454C275.081 263.826 275.081 254.714 269.454 249.092L207.632 187.27L269.448 125.454C275.075 119.826 275.075 110.714 269.454 105.086Z" fill="white"/>
</svg>
