<svg width="68" height="69" viewBox="0 0 68 69" fill="none" xmlns="http://www.w3.org/2000/svg">
<path d="M3 11.1821L33.3899 0.0920546C33.7705 -0.0370958 34.1679 -0.0258653 34.5206 0.0976698V0.0920546L65.5 11.1821C66.2949 11.4517 68.0728 12.2266 68 13.0296C67.9272 13.8325 68.0056 13.1138 68.0056 13.1587V50.8145H68C68 51.4658 67.6418 52.0947 67.0204 52.4092L34.974 68.7439C34.7053 68.9067 34.3862 69.0022 34.0504 69.0022C33.6921 69.0022 33.3619 68.8955 33.082 68.7158L0.962792 51.9094C0.358248 51.5894 0.00559763 50.9717 0.00559763 50.3259H0L0.00559763 13.1587C0.00559763 13.8101 2.13237 11.3057 3 11.1821ZM8.58117 38.3206C8.58117 37.6355 9.13533 37.074 9.82384 37.074C10.5067 37.074 11.0665 37.6299 11.0665 38.3206V43.3911C11.0665 43.4304 11.0665 43.4753 11.0609 43.5147C11.0609 43.6887 11.0833 43.8291 11.1225 43.9358C11.1393 43.9695 11.1561 44.0032 11.1897 44.0256L14.2851 45.4688C14.9065 45.7551 15.1752 46.4963 14.8897 47.114C14.6042 47.7373 13.8709 48.0068 13.2496 47.7205L10.0813 46.2437C10.0254 46.2212 9.96938 46.1931 9.9134 46.1538C9.40402 45.8338 9.05137 45.4014 8.83306 44.8679C8.65953 44.4412 8.58116 43.9695 8.58676 43.4641V43.3855V38.3206H8.58117ZM33.3899 67V27L1.53375 13.1587V50.8145L33.3899 67ZM66.7965 13.0296L34.5206 27V67L66.7965 50.8145V13.0296ZM34.0504 1L3 12.5073L34.0616 25.1416L65.5 12.5073L34.0504 1Z" fill="white"/>
</svg>
