<svg width="160" height="120" viewBox="0 0 160 120" fill="none" xmlns="http://www.w3.org/2000/svg">
<path d="M149.19 49.3072C143.074 42.2375 134.806 37.3946 125.729 35.523C119.471 14.5035 100.146 0 78.0219 0C66.739 0 55.6868 3.88062 46.9016 10.9263C38.7541 17.4607 32.8193 26.4737 30.0449 36.4682C12.2596 41.8453 0 58.2429 0 76.9986C0 100.349 18.9965 119.345 42.3466 119.345H117.638C117.722 119.345 117.805 119.342 117.887 119.336C129.009 119.146 139.436 114.688 147.267 106.768C155.154 98.7898 159.499 88.2177 159.499 76.9986C159.499 66.8262 155.837 56.9918 149.19 49.3072ZM117.598 112.907C117.543 112.907 117.489 112.909 117.436 112.913H42.3466C22.5438 112.913 6.4329 96.8014 6.4329 76.9986C6.4329 60.5422 17.5586 46.2269 33.4891 42.1868C34.6517 41.8918 35.5539 40.9743 35.8289 39.8064C40.456 20.1566 57.8064 6.43322 78.0223 6.43322C97.8985 6.43322 115.18 19.8735 120.048 39.1174C120.364 40.3691 121.399 41.3105 122.675 41.5073C140.001 44.1799 153.066 59.4376 153.066 76.9983C153.066 96.5606 137.155 112.669 117.598 112.907Z" fill="#2A0803"/>
<path d="M82.7172 64.1811C80.0185 55.6741 74.7877 48.3493 67.5916 42.9977C60.25 37.5383 51.5199 34.6523 42.3466 34.6523C40.5703 34.6523 39.1301 36.0922 39.1301 37.8688C39.1301 39.6454 40.57 41.0852 42.3466 41.0852C58.0743 41.0852 71.8342 51.1486 76.5858 66.1262C77.0204 67.496 78.2864 68.371 79.6506 68.371C79.973 68.371 80.3007 68.3221 80.6238 68.2196C82.3169 67.6823 83.2542 65.8742 82.7172 64.1811Z" fill="#2A0803"/>
<path d="M84.6645 75.4426C84.6 73.6675 83.1137 72.2806 81.334 72.3445C79.559 72.409 78.1721 73.8999 78.2359 75.675C78.2521 76.1145 78.2599 76.56 78.2599 76.9986C78.2599 78.7749 79.6998 80.215 81.4764 80.215C83.2527 80.215 84.6928 78.7752 84.6925 76.9986C84.6925 76.483 84.6832 75.9594 84.6645 75.4426Z" fill="#2A0803"/>
</svg>
