<svg width="71" height="66" viewBox="0 0 71 66" fill="none" xmlns="http://www.w3.org/2000/svg">
<path d="M70.0879 61.2083L54.0897 46.3233C58.4042 41.4379 60.9812 35.1797 60.9812 28.3698C60.9812 12.7177 47.3285 0.0263824 30.4906 0.0263824C13.6527 0.0263824 0 12.7177 0 28.3698C0 44.0219 13.6527 56.7132 30.4906 56.7132C37.8454 56.7132 44.5922 54.2907 49.8621 50.2531L65.8603 65.1247C67.728 66.7128 69.4798 65.6899 70.0879 65.1247C71.304 64.0076 71.304 62.3253 70.0879 61.2083ZM5.95045 28.3698C5.95045 15.7727 16.9392 5.55779 30.4906 5.55779C44.042 5.55779 55.0453 15.7727 55.0453 28.3698C55.0453 40.9668 44.0565 51.1818 30.5051 51.1818C16.9537 51.1818 5.95045 40.9668 5.95045 28.3698Z" fill="white"/>
</svg>
